<?xml version="1.0" encoding="UTF-8" standalone="no"?>
<!-- Created with Inkscape (http://www.inkscape.org/) -->

<svg
   xmlns:dc="http://purl.org/dc/elements/1.1/"
   xmlns:cc="http://creativecommons.org/ns#"
   xmlns:rdf="http://www.w3.org/1999/02/22-rdf-syntax-ns#"
   xmlns:svg="http://www.w3.org/2000/svg"
   xmlns="http://www.w3.org/2000/svg"
   xmlns:sodipodi="http://sodipodi.sourceforge.net/DTD/sodipodi-0.dtd"
   xmlns:inkscape="http://www.inkscape.org/namespaces/inkscape"
   width="30mm"
   height="30mm"
   viewBox="0 0 106.29921 106.29921"
   id="svg2"
   version="1.1"
   inkscape:version="0.91 r13725"
   sodipodi:docname="Logo.svg"
   inkscape:export-filename="/home/andreas/Software/kalliope_neuron_loxone/Docs/logo_128.png"
   inkscape:export-xdpi="108.37334"
   inkscape:export-ydpi="108.37334">
  <defs
     id="defs4" />
  <sodipodi:namedview
     id="base"
     pagecolor="#ffffff"
     bordercolor="#666666"
     borderopacity="1.0"
     inkscape:pageopacity="0.0"
     inkscape:pageshadow="2"
     inkscape:zoom="5.6"
     inkscape:cx="35.270754"
     inkscape:cy="56.794983"
     inkscape:document-units="px"
     inkscape:current-layer="layer1"
     showgrid="false"
     inkscape:window-width="1264"
     inkscape:window-height="952"
     inkscape:window-x="656"
     inkscape:window-y="54"
     inkscape:window-maximized="0"
     fit-margin-top="0"
     fit-margin-left="0"
     fit-margin-right="0"
     fit-margin-bottom="0" />
  <metadata
     id="metadata7">
    <rdf:RDF>
      <cc:Work
         rdf:about="">
        <dc:format>image/svg+xml</dc:format>
        <dc:type
           rdf:resource="http://purl.org/dc/dcmitype/StillImage" />
        <dc:title />
      </cc:Work>
    </rdf:RDF>
  </metadata>
  <g
     inkscape:label="Ebene 1"
     inkscape:groupmode="layer"
     id="layer1"
     transform="translate(-178.50941,-91.242485)">
    <path
       style="opacity:1;fill:none;fill-opacity:1;stroke:#5aaa00;stroke-width:6;stroke-linecap:round;stroke-linejoin:round;stroke-miterlimit:4;stroke-dasharray:none;stroke-dashoffset:0;stroke-opacity:1"
       d="m 186.18257,145.57648 43.996,-43.996 43.996,43.996"
       id="rect3342-3"
       inkscape:connector-curvature="0"
       sodipodi:nodetypes="ccc" />
    <path
       id="path4178"
       style="fill:#5aaa00;fill-opacity:1;fill-rule:evenodd;stroke:#ffffff;stroke-width:1px;stroke-linecap:round;stroke-linejoin:round;stroke-opacity:1"
       d="m 210,161.46934 34.64286,-0.71428 c 0,0 -3.50467,10.4535 -16.42857,11.42857 C 215.29038,173.1587 210,161.46934 210,161.46934 Z m 30.80944,-19.28571 a 5.452302,6.1665874 0 0 1 -5.4523,6.16659 5.452302,6.1665874 0 0 1 -5.4523,-6.16659 5.452302,6.1665874 0 0 1 5.4523,-6.16659 5.452302,6.1665874 0 0 1 5.4523,6.16659 z m -19.64285,0.35713 a 5.452302,6.1665874 0 0 1 -5.4523,6.16659 5.452302,6.1665874 0 0 1 -5.45231,-6.16659 5.452302,6.1665874 0 0 1 5.45231,-6.16659 5.452302,6.1665874 0 0 1 5.4523,6.16659 z m -28.6162,4.10714 37.62818,-37.62818 37.62818,37.62818 -0.30675,35.53572 -74.94961,0.35715 z"
       inkscape:connector-curvature="0" />
    <ellipse
       style="opacity:1;fill:#5aaa00;fill-opacity:1;stroke:#5aaa00;stroke-width:1;stroke-linecap:round;stroke-linejoin:round;stroke-miterlimit:4;stroke-dasharray:none;stroke-dashoffset:0;stroke-opacity:1"
       id="path4202"
       cx="217.14285"
       cy="143.96935"
       rx="1.4285715"
       ry="1.7857143" />
    <ellipse
       style="opacity:1;fill:#5aaa00;fill-opacity:1;stroke:#5aaa00;stroke-width:1;stroke-linecap:round;stroke-linejoin:round;stroke-miterlimit:4;stroke-dasharray:none;stroke-dashoffset:0;stroke-opacity:1"
       id="path4202-7"
       cx="236.64287"
       cy="143.7551"
       rx="1.4285715"
       ry="1.7857143" />
    <path
       id="path4237-1"
       style="opacity:1;fill:#5aaa00;fill-opacity:1;stroke:#ffffff;stroke-width:0.90354729;stroke-linecap:round;stroke-linejoin:round;stroke-miterlimit:4;stroke-dasharray:none;stroke-dashoffset:0;stroke-opacity:1"
       d="m 278.57944,160.79794 a 1.2487129,1.1237065 64.894627 0 1 -0.34819,1.65931 1.2487129,1.1237065 64.894627 0 1 -1.58462,-0.50842 1.2487129,1.1237065 64.894627 0 1 0.34821,-1.65932 1.2487129,1.1237065 64.894627 0 1 1.5846,0.50843 z m -2.06932,-3.628 a 1.2487129,1.1237065 64.894627 0 1 -0.34818,1.6593 1.2487129,1.1237065 64.894627 0 1 -1.58462,-0.5084 1.2487129,1.1237065 64.894627 0 1 0.34822,-1.65932 1.2487129,1.1237065 64.894627 0 1 1.58458,0.50842 z m -1.99506,-3.67216 a 1.2487129,1.1237065 64.894627 0 1 -0.3482,1.6593 1.2487129,1.1237065 64.894627 0 1 -1.5846,-0.50843 1.2487129,1.1237065 64.894627 0 1 0.34819,-1.65928 1.2487129,1.1237065 64.894627 0 1 1.58461,0.50841 z m 2.54678,10.91642 a 1.2487129,1.1237065 64.894627 0 1 -0.34819,1.65932 1.2487129,1.1237065 64.894627 0 1 -1.58459,-0.50842 1.2487129,1.1237065 64.894627 0 1 0.34819,-1.65931 1.2487129,1.1237065 64.894627 0 1 1.58459,0.50841 z m -2.26587,-3.62393 a 1.2487129,1.1237065 64.894627 0 1 -0.34819,1.6593 1.2487129,1.1237065 64.894627 0 1 -1.58461,-0.50842 1.2487129,1.1237065 64.894627 0 1 0.34819,-1.65931 1.2487129,1.1237065 64.894627 0 1 1.58461,0.50843 z m -1.94696,-3.58779 a 1.2487129,1.1237065 64.894627 0 1 -0.34819,1.65928 1.2487129,1.1237065 64.894627 0 1 -1.58461,-0.50841 1.2487129,1.1237065 64.894627 0 1 0.34821,-1.65929 1.2487129,1.1237065 64.894627 0 1 1.58459,0.50842 z m -2.30757,-3.99917 a 1.2487129,1.1237065 64.894627 0 1 -0.34819,1.65931 1.2487129,1.1237065 64.894627 0 1 -1.58461,-0.50843 1.2487129,1.1237065 64.894627 0 1 0.34819,-1.65931 1.2487129,1.1237065 64.894627 0 1 1.58461,0.50843 z m -5.07106,-1.61309 c 0,0 8.59304,-4.86139 13.91039,4.95437 5.31733,9.81576 -3.2382,13.75662 -3.2382,13.75662 z m -2.80057,0.0505 1.78984,-1.06578 12.32148,21.60263 -1.78983,1.06576 z m -3.70586,3.82632 4.2816,-2.54947 10.67007,18.70724 -4.28161,2.54947 z m -27.2086,26.17425 c 1.35598,-5.25636 27.94527,-23.99285 27.94527,-23.99285 l 8.439,14.79564 c 0,0 -28.17771,16.11498 -33.25369,14.68592 -1.89134,-0.5325 -3.63002,-3.55268 -3.13058,-5.48871 z"
       inkscape:connector-curvature="0" />
    <path
       style="fill:none;fill-rule:evenodd;stroke:#5aaa00;stroke-width:0.89989698px;stroke-linecap:butt;stroke-linejoin:miter;stroke-opacity:1"
       d="m 233.91837,185.24037 c -0.49134,-0.18801 -0.44349,0.54812 -0.7174,0.71991 -0.0856,0.0536 -0.2014,-0.0536 -0.28695,0 -0.0605,0.0379 -0.083,0.14203 -0.14349,0.17998 -0.0856,0.0536 -0.21932,-0.0849 -0.28696,0 -0.0338,0.0424 0.0338,0.13756 0,0.17998 -0.0338,0.0424 -0.0981,-0.019 -0.14347,0 -0.10146,0.0424 -0.1855,0.13755 -0.28696,0.17997 -0.0454,0.0189 -0.0981,-0.0189 -0.14348,0 -0.10145,0.0424 -0.18321,0.14745 -0.28696,0.17998 -0.1392,0.0436 -0.29432,-0.0569 -0.43044,0 -0.10145,0.0424 -0.1855,0.13756 -0.28695,0.17998 -0.0831,0.0348 -0.44959,0 -0.57392,0 -0.47827,0 -0.95654,0 -1.43479,0 -1.4348,0 -2.86959,0 -4.30439,0 -0.66957,0 -1.33913,0 -2.00871,0 -0.0478,0 -0.0956,0 -0.14348,0 -0.0478,0 -0.10966,0.0424 -0.14348,0 -0.0338,-0.0424 0.0338,-0.13756 0,-0.17998 -0.0338,-0.0424 -0.10966,0.0424 -0.14347,0 -0.0338,-0.0424 0.0338,-0.13755 0,-0.17998 -0.0677,-0.0849 -0.21932,0.0849 -0.28696,0 -0.0338,-0.0424 0.0338,-0.13755 0,-0.17997 -0.0717,-0.09 -0.3587,0.09 -0.43044,0 -0.0338,-0.0424 0.0338,-0.13756 0,-0.17998 -0.0293,-0.0368 -0.37355,0.0357 -0.43044,0 -0.0605,-0.038 -0.083,-0.14204 -0.14348,-0.17998 -0.0856,-0.0536 -0.21932,0.0849 -0.28696,0 -0.0338,-0.0424 0.0338,-0.13755 0,-0.17997 -0.0338,-0.0424 -0.10966,0.0424 -0.14348,0 -0.0338,-0.0424 0.0338,-0.13757 0,-0.17999 -0.0338,-0.0424 -0.0957,0 -0.14348,0 -0.23913,0 -0.47826,0 -0.7174,0 -0.0478,0 -0.10966,0.0424 -0.14347,0 -0.0338,-0.0424 0.0338,-0.13756 0,-0.17998 -0.0345,-0.0433 -0.53939,0.0433 -0.57392,0 -0.0338,-0.0424 0.0338,-0.13755 0,-0.17997 -0.0345,-0.0433 -0.53939,0.0433 -0.57392,0 -0.0338,-0.0424 0.0338,-0.13756 0,-0.17998 -0.0677,-0.0849 -0.21932,0.0849 -0.28695,0 -0.0338,-0.0424 0.0427,-0.15315 0,-0.17998 -0.0856,-0.0536 -0.19622,0.0379 -0.28697,0 -0.0641,-0.0268 -0.083,-0.14204 -0.14348,-0.17997 -0.0427,-0.0268 -0.0956,0 -0.14347,0 -0.0957,0 -0.19621,0.0379 -0.28696,0 -0.0642,-0.0268 -0.083,-0.14204 -0.14348,-0.17998 -0.0427,-0.0268 -0.0957,0 -0.14348,0 -0.0478,0 -0.0957,0 -0.14348,0 -0.23913,0 -0.47826,0 -0.71739,0 -0.33479,0 -0.66958,0 -1.00436,0 -0.0478,0 -0.10966,0.0424 -0.14348,0 -0.0338,-0.0424 0.0338,-0.13757 0,-0.17999 -0.0338,-0.0424 -0.0957,0 -0.14348,0 -0.0478,0 -0.0957,0 -0.14348,0 -0.57391,0 -1.14783,0 -1.72175,0 -0.95653,0 -1.91306,0 -2.86959,0 -0.28696,0 -0.57392,0 -0.86087,0 -0.0478,0 -0.0957,0 -0.14348,0 -0.0478,0 -0.1007,-0.0268 -0.14348,0 -0.0605,0.0379 -0.083,0.14204 -0.14348,0.17999 -0.0639,0.04 -0.50829,-0.0274 -0.57392,0 -0.0642,0.0268 -0.083,0.14203 -0.14348,0.17998 -0.11478,0.072 -0.31565,-0.072 -0.43044,0 -0.0605,0.0379 -0.083,0.14203 -0.14348,0.17997 -0.0778,0.0488 -0.53465,-0.0493 -0.57391,0 -0.0338,0.0424 0.0338,0.13756 0,0.17998 -0.0444,0.0557 -0.67297,-0.0557 -0.7174,0 -0.29686,0.37238 0.45365,-0.0145 -0.14348,0.35995 -0.0855,0.0536 -0.21932,-0.0849 -0.28696,0 -0.0338,0.0424 0.0338,0.13756 0,0.17998 -0.0718,0.09 -0.35869,-0.09 -0.43043,0 -0.0338,0.0424 0.0338,0.13757 0,0.17999 -0.0293,0.0368 -0.37355,-0.0357 -0.43044,0 -0.0605,0.0379 -0.083,0.14203 -0.14349,0.17997 -0.0855,0.0536 -0.21931,-0.0849 -0.28695,0 -0.29687,0.37238 0.45365,-0.0146 -0.14348,0.35996 -0.11479,0.072 -0.31566,-0.072 -0.43043,0 -0.0605,0.038 -0.083,0.14204 -0.14349,0.17997 -0.0427,0.0268 -0.1007,-0.0268 -0.14348,0 -0.0605,0.038 -0.083,0.14204 -0.14348,0.17998 -0.0856,0.0536 -0.2014,-0.0536 -0.28695,0 -0.0605,0.0379 -0.083,0.14204 -0.14348,0.17998 -0.0428,0.0268 -0.1007,-0.0268 -0.14348,0 -0.0605,0.0379 -0.083,0.14204 -0.14349,0.17999 -0.0427,0.0268 -0.10966,-0.0424 -0.14347,0 -0.0338,0.0424 0.0338,0.13755 0,0.17997 -0.0338,0.0424 -0.0957,0 -0.14348,0 -0.0478,0 -0.0957,0 -0.14348,0 -0.0478,0 -0.0957,0 -0.14348,0 -0.0478,0 -0.10966,-0.0424 -0.14348,0 -0.0338,0.0424 0.0338,0.13756 0,0.17998 -0.0444,0.0557 -0.67297,-0.0557 -0.7174,0 -0.0338,0.0424 0.0338,0.13755 0,0.17998 -0.0338,0.0424 -0.0957,0 -0.14347,0 -0.0478,0 -0.0957,0 -0.14348,0 -0.57392,0 -1.14784,0 -1.72176,0 -1.10001,0 -2.20001,0 -3.30002,0 -0.33479,0 -0.66957,0 -1.00435,0 -0.14348,0 -0.29433,0.0569 -0.43045,0 -0.0642,-0.0268 -0.0778,-0.1594 -0.14347,-0.17998 -0.1392,-0.0436 -0.28975,0.0353 -0.43044,0 -0.10487,-0.0263 -0.18321,-0.14744 -0.28696,-0.17998 -0.0928,-0.0291 -0.19416,0.0291 -0.28696,0 -0.10375,-0.0326 -0.18321,-0.14744 -0.28696,-0.17997 -0.0928,-0.0291 -0.19621,0.0379 -0.28695,0 -0.0642,-0.0268 -0.0793,-0.15316 -0.14349,-0.17999 -0.0907,-0.0379 -0.19416,0.0291 -0.28695,0 -0.69286,-0.21727 0.007,-0.0856 -0.43044,-0.35996 -0.0427,-0.0268 -0.1007,0.0268 -0.14348,0 -0.0605,-0.0379 -0.083,-0.14203 -0.14348,-0.17997 -0.0428,-0.0268 -0.0957,0 -0.14348,0 -0.0957,-0.06 -0.19797,-0.10557 -0.28696,-0.17998 -0.13427,-0.11229 -0.48202,-0.60465 -0.57392,-0.71992 -0.0478,-0.06 -0.083,-0.14203 -0.14348,-0.17997 -0.0427,-0.0268 -0.1007,0.0268 -0.14347,0 -0.0605,-0.0379 -0.083,-0.14203 -0.14348,-0.17998 -0.0856,-0.0536 -0.2014,0.0536 -0.28696,0 -0.59712,-0.37452 0.15339,0.0124 -0.14348,-0.35995 -0.0338,-0.0424 -0.10967,0.0424 -0.14348,0 -0.0338,-0.0424 0,-0.11999 0,-0.17998 -0.0478,0 -0.10966,0.0424 -0.14348,0 -0.0677,-0.0849 0.0676,-0.27512 0,-0.35997 -0.29687,-0.37238 0.0116,0.56905 -0.28696,-0.17997 -0.0427,-0.10732 0.0677,-0.27511 0,-0.35996 -0.0338,-0.0424 -0.10966,0.0424 -0.14348,0 -0.0718,-0.09 0.0717,-0.44994 0,-0.53994 -0.0338,-0.0424 -0.10966,0.0424 -0.14347,0 -0.0338,-0.0424 0,-0.11997 0,-0.17997 0,-0.06 0,-0.11998 0,-0.17998 0,-0.53993 0,-1.07987 0,-1.6198 0,-0.41996 0,-0.8399 0,-1.25985 0,-0.081 -0.0219,-0.48516 0,-0.53994 0.29855,-0.74903 -0.01,0.1924 0.28695,-0.17998 0.0338,-0.0424 -0.0338,-0.13755 0,-0.17998 0.0338,-0.0424 0.10966,0.0424 0.14348,0 0.0676,-0.0849 -0.0677,-0.27511 0,-0.35995 0.38261,0 -0.0478,0.06 0.14348,-0.17998 0.0676,-0.0849 0.20141,0.0536 0.28696,0 0.0605,-0.0379 0.083,-0.14204 0.14348,-0.17997 0.0428,-0.0268 0.10966,0.0424 0.14348,0 0.0338,-0.0424 -0.0338,-0.13757 0,-0.17999 0.0338,-0.0424 0.10966,0.0424 0.14348,0 0.0338,-0.0424 -0.0338,-0.13756 0,-0.17998 0.0345,-0.0433 0.53939,0.0433 0.57392,0 0.0677,-0.0849 -0.0677,-0.27511 0,-0.35995 0.0338,-0.0424 0.0956,0 0.14348,0 0.0478,0 0.0956,0 0.14347,0 0.52609,0 1.05218,0 1.57827,0"
       id="path4307"
       inkscape:connector-curvature="0" />
  </g>
</svg>
